<svg width="40" height="40" viewBox="0 0 40 40" fill="none" xmlns="http://www.w3.org/2000/svg">
<path d="M0.5 0.5H30C35.2467 0.5 39.5 4.7533 39.5 10V30C39.5 35.2467 35.2467 39.5 30 39.5H0.5V0.5Z" fill="#EE685F" stroke="#EE685F"/>
<path d="M27.3188 12.6813C27.2344 12.5973 27.1278 12.5392 27.0116 12.5137C26.8953 12.4883 26.7742 12.4965 26.6625 12.5375L12.9125 17.5375C12.7939 17.5825 12.6918 17.6625 12.6198 17.7669C12.5477 17.8713 12.5092 17.9951 12.5092 18.1219C12.5092 18.2487 12.5477 18.3726 12.6198 18.4769C12.6918 18.5813 12.7939 18.6613 12.9125 18.7063L18.9125 21.1063L21.3125 27.1063C21.3576 27.2197 21.4349 27.3174 21.5348 27.3873C21.6348 27.4573 21.753 27.4965 21.875 27.5C22.0013 27.4974 22.1239 27.4566 22.2265 27.383C22.3292 27.3094 22.4071 27.2064 22.45 27.0875L27.45 13.3375C27.4926 13.227 27.5029 13.1066 27.4796 12.9904C27.4564 12.8742 27.4006 12.767 27.3188 12.6813ZM21.875 25.125L20.1313 20.75L23.125 17.7563L22.2438 16.875L19.225 19.8938L14.875 18.125L25.8313 14.1688L21.875 25.125Z" fill="white"/>
</svg>
