<svg width="98" height="20" viewBox="0 0 98 20" fill="none" xmlns="http://www.w3.org/2000/svg">
<path d="M9.99999 1.66675C5.40499 1.66675 1.66666 5.40508 1.66666 10.0001C1.66666 14.5951 5.40499 18.3334 9.99999 18.3334C14.595 18.3334 18.3333 14.5951 18.3333 10.0001C18.3333 5.40508 14.595 1.66675 9.99999 1.66675ZM9.99999 16.6667C6.32416 16.6667 3.33332 13.6759 3.33332 10.0001C3.33332 6.32425 6.32416 3.33341 9.99999 3.33341C13.6758 3.33341 16.6667 6.32425 16.6667 10.0001C16.6667 13.6759 13.6758 16.6667 9.99999 16.6667Z" fill="#2A90D9"/>
<path d="M10.8333 5.83325H9.16666V10.3449L11.9108 13.0891L13.0892 11.9108L10.8333 9.65492V5.83325Z" fill="#2A90D9"/>
<path d="M31.1934 15.112C30.5028 15.112 29.8308 15.0047 29.1774 14.79C28.5334 14.5753 28.0061 14.286 27.5954 13.922L28.2394 12.816C28.5661 13.124 28.9908 13.376 29.5134 13.572C30.0361 13.768 30.5914 13.866 31.1794 13.866C31.9261 13.866 32.5001 13.7073 32.9014 13.39C33.3028 13.0727 33.5034 12.648 33.5034 12.116C33.5034 11.752 33.4148 11.4347 33.2374 11.164C33.0601 10.8933 32.7521 10.688 32.3134 10.548C31.8841 10.3987 31.2914 10.324 30.5354 10.324H28.3094L28.8274 5.2H34.3574V6.418H29.3454L30.0734 5.732L29.6674 9.778L28.9394 9.106H30.8294C31.8094 9.106 32.5981 9.232 33.1954 9.484C33.7928 9.736 34.2268 10.086 34.4974 10.534C34.7681 10.9727 34.9034 11.4813 34.9034 12.06C34.9034 12.62 34.7681 13.1333 34.4974 13.6C34.2268 14.0573 33.8161 14.426 33.2654 14.706C32.7241 14.9767 32.0334 15.112 31.1934 15.112ZM49.7123 7.51C50.3096 7.51 50.8369 7.62667 51.2943 7.86C51.7516 8.09333 52.1063 8.448 52.3583 8.924C52.6196 9.4 52.7503 10.002 52.7503 10.73V15H51.4063V10.884C51.4063 10.1653 51.2383 9.624 50.9023 9.26C50.5663 8.896 50.0949 8.714 49.4883 8.714C49.0403 8.714 48.6483 8.80733 48.3123 8.994C47.9763 9.18067 47.7149 9.456 47.5283 9.82C47.3509 10.184 47.2623 10.6367 47.2623 11.178V15H45.9183V10.884C45.9183 10.1653 45.7503 9.624 45.4143 9.26C45.0876 8.896 44.6163 8.714 44.0003 8.714C43.5616 8.714 43.1743 8.80733 42.8383 8.994C42.5023 9.18067 42.2409 9.456 42.0543 9.82C41.8676 10.184 41.7743 10.6367 41.7743 11.178V15H40.4303V7.58H41.7183V9.554L41.5083 9.05C41.7416 8.56467 42.1009 8.18667 42.5863 7.916C43.0716 7.64533 43.6363 7.51 44.2803 7.51C44.9896 7.51 45.6009 7.68733 46.1143 8.042C46.6276 8.38733 46.9636 8.91467 47.1223 9.624L46.5763 9.4C46.8003 8.83067 47.1923 8.37333 47.7523 8.028C48.3123 7.68267 48.9656 7.51 49.7123 7.51ZM55.2232 15V7.58H56.5672V15H55.2232ZM55.8952 6.152C55.6339 6.152 55.4146 6.068 55.2372 5.9C55.0692 5.732 54.9852 5.52667 54.9852 5.284C54.9852 5.032 55.0692 4.822 55.2372 4.654C55.4146 4.486 55.6339 4.402 55.8952 4.402C56.1566 4.402 56.3712 4.486 56.5392 4.654C56.7166 4.81267 56.8052 5.01333 56.8052 5.256C56.8052 5.508 56.7212 5.72267 56.5532 5.9C56.3852 6.068 56.1659 6.152 55.8952 6.152ZM63.0954 7.51C63.702 7.51 64.234 7.62667 64.6914 7.86C65.158 8.09333 65.522 8.448 65.7834 8.924C66.0447 9.4 66.1754 10.002 66.1754 10.73V15H64.8314V10.884C64.8314 10.1653 64.654 9.624 64.2994 9.26C63.954 8.896 63.464 8.714 62.8294 8.714C62.3534 8.714 61.938 8.80733 61.5834 8.994C61.2287 9.18067 60.9534 9.456 60.7574 9.82C60.5707 10.184 60.4774 10.6367 60.4774 11.178V15H59.1334V7.58H60.4214V9.582L60.2114 9.05C60.454 8.56467 60.8274 8.18667 61.3314 7.916C61.8354 7.64533 62.4234 7.51 63.0954 7.51ZM71.7847 15.084C71.15 15.084 70.59 14.9673 70.1047 14.734C69.6287 14.5007 69.2553 14.146 68.9847 13.67C68.7233 13.1847 68.5927 12.578 68.5927 11.85V7.58H69.9367V11.696C69.9367 12.424 70.1093 12.97 70.4547 13.334C70.8093 13.698 71.304 13.88 71.9387 13.88C72.4053 13.88 72.8113 13.7867 73.1567 13.6C73.502 13.404 73.768 13.124 73.9547 12.76C74.1413 12.3867 74.2347 11.9387 74.2347 11.416V7.58H75.5787V15H74.3047V12.998L74.5147 13.53C74.272 14.0247 73.908 14.4073 73.4227 14.678C72.9373 14.9487 72.3913 15.084 71.7847 15.084ZM80.6853 15.084C79.9386 15.084 79.3599 14.8833 78.9493 14.482C78.5386 14.0807 78.3333 13.5067 78.3333 12.76V5.956H79.6773V12.704C79.6773 13.1053 79.7753 13.4133 79.9713 13.628C80.1766 13.8427 80.4659 13.95 80.8393 13.95C81.2593 13.95 81.6093 13.8333 81.8893 13.6L82.3093 14.566C82.1039 14.7433 81.8566 14.874 81.5673 14.958C81.2873 15.042 80.9933 15.084 80.6853 15.084ZM77.0733 8.686V7.58H81.8053V8.686H77.0733ZM86.9921 15.084C86.1987 15.084 85.4987 14.9207 84.8921 14.594C84.2947 14.2673 83.8281 13.8193 83.4921 13.25C83.1654 12.6807 83.0021 12.0273 83.0021 11.29C83.0021 10.5527 83.1607 9.89933 83.4781 9.33C83.8047 8.76067 84.2481 8.31733 84.8081 8C85.3774 7.67333 86.0167 7.51 86.7261 7.51C87.4447 7.51 88.0794 7.66867 88.6301 7.986C89.1807 8.30333 89.6101 8.75133 89.9181 9.33C90.2354 9.89933 90.3941 10.5667 90.3941 11.332C90.3941 11.388 90.3894 11.4533 90.3801 11.528C90.3801 11.6027 90.3754 11.6727 90.3661 11.738H84.0521V10.772H89.6661L89.1201 11.108C89.1294 10.632 89.0314 10.2073 88.8261 9.834C88.6207 9.46067 88.3361 9.17133 87.9721 8.966C87.6174 8.75133 87.2021 8.644 86.7261 8.644C86.2594 8.644 85.8441 8.75133 85.4801 8.966C85.1161 9.17133 84.8314 9.46533 84.6261 9.848C84.4207 10.2213 84.3181 10.6507 84.3181 11.136V11.36C84.3181 11.8547 84.4301 12.298 84.6541 12.69C84.8874 13.0727 85.2094 13.3713 85.6201 13.586C86.0307 13.8007 86.5021 13.908 87.0341 13.908C87.4727 13.908 87.8694 13.8333 88.2241 13.684C88.5881 13.5347 88.9054 13.3107 89.1761 13.012L89.9181 13.88C89.5821 14.272 89.1621 14.5707 88.6581 14.776C88.1634 14.9813 87.6081 15.084 86.9921 15.084ZM94.3883 15.084C93.7723 15.084 93.1843 15 92.6243 14.832C92.0737 14.664 91.6397 14.4587 91.3223 14.216L91.8823 13.152C92.1997 13.3667 92.5917 13.5487 93.0583 13.698C93.525 13.8473 94.001 13.922 94.4863 13.922C95.1117 13.922 95.5597 13.8333 95.8303 13.656C96.1103 13.4787 96.2503 13.2313 96.2503 12.914C96.2503 12.6807 96.1663 12.4987 95.9983 12.368C95.8303 12.2373 95.6063 12.1393 95.3263 12.074C95.0557 12.0087 94.7523 11.9527 94.4163 11.906C94.0803 11.85 93.7443 11.7847 93.4083 11.71C93.0723 11.626 92.7643 11.514 92.4843 11.374C92.2043 11.2247 91.9803 11.024 91.8123 10.772C91.6443 10.5107 91.5603 10.1653 91.5603 9.736C91.5603 9.288 91.6863 8.896 91.9383 8.56C92.1903 8.224 92.545 7.96733 93.0023 7.79C93.469 7.60333 94.0197 7.51 94.6543 7.51C95.1397 7.51 95.6297 7.57067 96.1243 7.692C96.6283 7.804 97.039 7.96733 97.3563 8.182L96.7823 9.246C96.4463 9.022 96.0963 8.868 95.7323 8.784C95.3683 8.7 95.0043 8.658 94.6403 8.658C94.0523 8.658 93.6137 8.756 93.3243 8.952C93.035 9.13867 92.8903 9.38133 92.8903 9.68C92.8903 9.932 92.9743 10.128 93.1423 10.268C93.3197 10.3987 93.5437 10.5013 93.8143 10.576C94.0943 10.6507 94.4023 10.716 94.7383 10.772C95.0743 10.8187 95.4103 10.884 95.7463 10.968C96.0823 11.0427 96.3857 11.15 96.6563 11.29C96.9363 11.43 97.1603 11.626 97.3283 11.878C97.5057 12.13 97.5943 12.466 97.5943 12.886C97.5943 13.334 97.4637 13.7213 97.2023 14.048C96.941 14.3747 96.5723 14.6313 96.0963 14.818C95.6203 14.9953 95.051 15.084 94.3883 15.084Z" fill="#2A90D9"/>
</svg>
