<svg width="88" height="20" viewBox="0 0 88 20" fill="none" xmlns="http://www.w3.org/2000/svg">
<path d="M10 1.66675C5.40502 1.66675 1.66669 5.40508 1.66669 10.0001C1.66669 14.5951 5.40502 18.3334 10 18.3334C14.595 18.3334 18.3334 14.5951 18.3334 10.0001C18.3334 5.40508 14.595 1.66675 10 1.66675ZM10 16.6667C6.32419 16.6667 3.33335 13.6759 3.33335 10.0001C3.33335 6.32425 6.32419 3.33341 10 3.33341C13.6759 3.33341 16.6667 6.32425 16.6667 10.0001C16.6667 13.6759 13.6759 16.6667 10 16.6667Z" fill="#2A90D9"/>
<path d="M10.8334 5.83325H9.16669V10.3449L11.9109 13.0891L13.0892 11.9108L10.8334 9.65492V5.83325Z" fill="#2A90D9"/>
<path d="M29.5525 15V5.76L30.1545 6.418H27.3405V5.2H30.9385V15H29.5525ZM46.7259 7.51C47.3233 7.51 47.8506 7.62667 48.3079 7.86C48.7653 8.09333 49.1199 8.448 49.3719 8.924C49.6333 9.4 49.7639 10.002 49.7639 10.73V15H48.4199V10.884C48.4199 10.1653 48.2519 9.624 47.9159 9.26C47.5799 8.896 47.1086 8.714 46.5019 8.714C46.0539 8.714 45.6619 8.80733 45.3259 8.994C44.9899 9.18067 44.7286 9.456 44.5419 9.82C44.3646 10.184 44.2759 10.6367 44.2759 11.178V15H42.9319V10.884C42.9319 10.1653 42.7639 9.624 42.4279 9.26C42.1013 8.896 41.6299 8.714 41.0139 8.714C40.5753 8.714 40.1879 8.80733 39.8519 8.994C39.5159 9.18067 39.2546 9.456 39.0679 9.82C38.8813 10.184 38.7879 10.6367 38.7879 11.178V15H37.4439V7.58H38.7319V9.554L38.5219 9.05C38.7553 8.56467 39.1146 8.18667 39.5999 7.916C40.0853 7.64533 40.6499 7.51 41.2939 7.51C42.0033 7.51 42.6146 7.68733 43.1279 8.042C43.6413 8.38733 43.9773 8.91467 44.1359 9.624L43.5899 9.4C43.8139 8.83067 44.2059 8.37333 44.7659 8.028C45.3259 7.68267 45.9793 7.51 46.7259 7.51ZM52.2369 15V7.58H53.5809V15H52.2369ZM52.9089 6.152C52.6476 6.152 52.4282 6.068 52.2509 5.9C52.0829 5.732 51.9989 5.52667 51.9989 5.284C51.9989 5.032 52.0829 4.822 52.2509 4.654C52.4282 4.486 52.6476 4.402 52.9089 4.402C53.1702 4.402 53.3849 4.486 53.5529 4.654C53.7302 4.81267 53.8189 5.01333 53.8189 5.256C53.8189 5.508 53.7349 5.72267 53.5669 5.9C53.3989 6.068 53.1796 6.152 52.9089 6.152ZM60.109 7.51C60.7157 7.51 61.2477 7.62667 61.705 7.86C62.1717 8.09333 62.5357 8.448 62.797 8.924C63.0584 9.4 63.189 10.002 63.189 10.73V15H61.845V10.884C61.845 10.1653 61.6677 9.624 61.313 9.26C60.9677 8.896 60.4777 8.714 59.843 8.714C59.367 8.714 58.9517 8.80733 58.597 8.994C58.2424 9.18067 57.967 9.456 57.771 9.82C57.5844 10.184 57.491 10.6367 57.491 11.178V15H56.147V7.58H57.435V9.582L57.225 9.05C57.4677 8.56467 57.841 8.18667 58.345 7.916C58.849 7.64533 59.437 7.51 60.109 7.51ZM68.7983 15.084C68.1637 15.084 67.6037 14.9673 67.1183 14.734C66.6423 14.5007 66.269 14.146 65.9983 13.67C65.737 13.1847 65.6063 12.578 65.6063 11.85V7.58H66.9503V11.696C66.9503 12.424 67.123 12.97 67.4683 13.334C67.823 13.698 68.3177 13.88 68.9523 13.88C69.419 13.88 69.825 13.7867 70.1703 13.6C70.5157 13.404 70.7817 13.124 70.9683 12.76C71.155 12.3867 71.2483 11.9387 71.2483 11.416V7.58H72.5923V15H71.3183V12.998L71.5283 13.53C71.2857 14.0247 70.9217 14.4073 70.4363 14.678C69.951 14.9487 69.405 15.084 68.7983 15.084ZM77.699 15.084C76.9523 15.084 76.3736 14.8833 75.963 14.482C75.5523 14.0807 75.347 13.5067 75.347 12.76V5.956H76.691V12.704C76.691 13.1053 76.789 13.4133 76.985 13.628C77.1903 13.8427 77.4796 13.95 77.853 13.95C78.273 13.95 78.623 13.8333 78.903 13.6L79.323 14.566C79.1176 14.7433 78.8703 14.874 78.581 14.958C78.301 15.042 78.007 15.084 77.699 15.084ZM74.087 8.686V7.58H78.819V8.686H74.087ZM84.0057 15.084C83.2124 15.084 82.5124 14.9207 81.9057 14.594C81.3084 14.2673 80.8417 13.8193 80.5057 13.25C80.1791 12.6807 80.0157 12.0273 80.0157 11.29C80.0157 10.5527 80.1744 9.89933 80.4917 9.33C80.8184 8.76067 81.2617 8.31733 81.8217 8C82.3911 7.67333 83.0304 7.51 83.7397 7.51C84.4584 7.51 85.0931 7.66867 85.6437 7.986C86.1944 8.30333 86.6237 8.75133 86.9317 9.33C87.2491 9.89933 87.4077 10.5667 87.4077 11.332C87.4077 11.388 87.4031 11.4533 87.3937 11.528C87.3937 11.6027 87.3891 11.6727 87.3797 11.738H81.0657V10.772H86.6797L86.1337 11.108C86.1431 10.632 86.0451 10.2073 85.8397 9.834C85.6344 9.46067 85.3497 9.17133 84.9857 8.966C84.6311 8.75133 84.2157 8.644 83.7397 8.644C83.2731 8.644 82.8577 8.75133 82.4937 8.966C82.1297 9.17133 81.8451 9.46533 81.6397 9.848C81.4344 10.2213 81.3317 10.6507 81.3317 11.136V11.36C81.3317 11.8547 81.4437 12.298 81.6677 12.69C81.9011 13.0727 82.2231 13.3713 82.6337 13.586C83.0444 13.8007 83.5157 13.908 84.0477 13.908C84.4864 13.908 84.8831 13.8333 85.2377 13.684C85.6017 13.5347 85.9191 13.3107 86.1897 13.012L86.9317 13.88C86.5957 14.272 86.1757 14.5707 85.6717 14.776C85.1771 14.9813 84.6217 15.084 84.0057 15.084Z" fill="#2A90D9"/>
</svg>
