<svg width="103" height="20" viewBox="0 0 103 20" fill="none" xmlns="http://www.w3.org/2000/svg">
<path d="M9.99996 1.66675C5.40496 1.66675 1.66663 5.40508 1.66663 10.0001C1.66663 14.5951 5.40496 18.3334 9.99996 18.3334C14.595 18.3334 18.3333 14.5951 18.3333 10.0001C18.3333 5.40508 14.595 1.66675 9.99996 1.66675ZM9.99996 16.6667C6.32413 16.6667 3.33329 13.6759 3.33329 10.0001C3.33329 6.32425 6.32413 3.33341 9.99996 3.33341C13.6758 3.33341 16.6666 6.32425 16.6666 10.0001C16.6666 13.6759 13.6758 16.6667 9.99996 16.6667Z" fill="#2A90D9"/>
<path d="M10.8333 5.83325H9.16663V10.3449L11.9108 13.0891L13.0891 11.9108L10.8333 9.65492V5.83325Z" fill="#2A90D9"/>
<path d="M29.4998 15V5.76L30.1018 6.418H27.2878V5.2H30.8858V15H29.4998ZM36.1934 15.112C35.5028 15.112 34.8308 15.0047 34.1774 14.79C33.5334 14.5753 33.0061 14.286 32.5954 13.922L33.2394 12.816C33.5661 13.124 33.9908 13.376 34.5134 13.572C35.0361 13.768 35.5914 13.866 36.1794 13.866C36.9261 13.866 37.5001 13.7073 37.9014 13.39C38.3028 13.0727 38.5034 12.648 38.5034 12.116C38.5034 11.752 38.4148 11.4347 38.2374 11.164C38.0601 10.8933 37.7521 10.688 37.3134 10.548C36.8841 10.3987 36.2914 10.324 35.5354 10.324H33.3094L33.8274 5.2H39.3574V6.418H34.3454L35.0734 5.732L34.6674 9.778L33.9394 9.106H35.8294C36.8094 9.106 37.5981 9.232 38.1954 9.484C38.7928 9.736 39.2268 10.086 39.4974 10.534C39.7681 10.9727 39.9034 11.4813 39.9034 12.06C39.9034 12.62 39.7681 13.1333 39.4974 13.6C39.2268 14.0573 38.8161 14.426 38.2654 14.706C37.7241 14.9767 37.0334 15.112 36.1934 15.112ZM54.7123 7.51C55.3096 7.51 55.8369 7.62667 56.2943 7.86C56.7516 8.09333 57.1063 8.448 57.3583 8.924C57.6196 9.4 57.7503 10.002 57.7503 10.73V15H56.4063V10.884C56.4063 10.1653 56.2383 9.624 55.9023 9.26C55.5663 8.896 55.0949 8.714 54.4883 8.714C54.0403 8.714 53.6483 8.80733 53.3123 8.994C52.9763 9.18067 52.7149 9.456 52.5283 9.82C52.3509 10.184 52.2623 10.6367 52.2623 11.178V15H50.9183V10.884C50.9183 10.1653 50.7503 9.624 50.4143 9.26C50.0876 8.896 49.6163 8.714 49.0003 8.714C48.5616 8.714 48.1743 8.80733 47.8383 8.994C47.5023 9.18067 47.2409 9.456 47.0543 9.82C46.8676 10.184 46.7743 10.6367 46.7743 11.178V15H45.4303V7.58H46.7183V9.554L46.5083 9.05C46.7416 8.56467 47.1009 8.18667 47.5863 7.916C48.0716 7.64533 48.6363 7.51 49.2803 7.51C49.9896 7.51 50.6009 7.68733 51.1143 8.042C51.6276 8.38733 51.9636 8.91467 52.1223 9.624L51.5763 9.4C51.8003 8.83067 52.1923 8.37333 52.7523 8.028C53.3123 7.68267 53.9656 7.51 54.7123 7.51ZM60.2232 15V7.58H61.5672V15H60.2232ZM60.8952 6.152C60.6339 6.152 60.4146 6.068 60.2372 5.9C60.0692 5.732 59.9852 5.52667 59.9852 5.284C59.9852 5.032 60.0692 4.822 60.2372 4.654C60.4146 4.486 60.6339 4.402 60.8952 4.402C61.1566 4.402 61.3712 4.486 61.5392 4.654C61.7166 4.81267 61.8052 5.01333 61.8052 5.256C61.8052 5.508 61.7212 5.72267 61.5532 5.9C61.3852 6.068 61.1659 6.152 60.8952 6.152ZM68.0954 7.51C68.702 7.51 69.234 7.62667 69.6914 7.86C70.158 8.09333 70.522 8.448 70.7834 8.924C71.0447 9.4 71.1754 10.002 71.1754 10.73V15H69.8314V10.884C69.8314 10.1653 69.654 9.624 69.2994 9.26C68.954 8.896 68.464 8.714 67.8294 8.714C67.3534 8.714 66.938 8.80733 66.5834 8.994C66.2287 9.18067 65.9534 9.456 65.7574 9.82C65.5707 10.184 65.4774 10.6367 65.4774 11.178V15H64.1334V7.58H65.4214V9.582L65.2114 9.05C65.454 8.56467 65.8274 8.18667 66.3314 7.916C66.8354 7.64533 67.4234 7.51 68.0954 7.51ZM76.7847 15.084C76.15 15.084 75.59 14.9673 75.1047 14.734C74.6287 14.5007 74.2553 14.146 73.9847 13.67C73.7233 13.1847 73.5927 12.578 73.5927 11.85V7.58H74.9367V11.696C74.9367 12.424 75.1093 12.97 75.4547 13.334C75.8093 13.698 76.304 13.88 76.9387 13.88C77.4053 13.88 77.8113 13.7867 78.1567 13.6C78.502 13.404 78.768 13.124 78.9547 12.76C79.1413 12.3867 79.2347 11.9387 79.2347 11.416V7.58H80.5787V15H79.3047V12.998L79.5147 13.53C79.272 14.0247 78.908 14.4073 78.4227 14.678C77.9373 14.9487 77.3913 15.084 76.7847 15.084ZM85.6853 15.084C84.9386 15.084 84.3599 14.8833 83.9493 14.482C83.5386 14.0807 83.3333 13.5067 83.3333 12.76V5.956H84.6773V12.704C84.6773 13.1053 84.7753 13.4133 84.9713 13.628C85.1766 13.8427 85.4659 13.95 85.8393 13.95C86.2593 13.95 86.6093 13.8333 86.8893 13.6L87.3093 14.566C87.1039 14.7433 86.8566 14.874 86.5673 14.958C86.2873 15.042 85.9933 15.084 85.6853 15.084ZM82.0733 8.686V7.58H86.8053V8.686H82.0733ZM91.9921 15.084C91.1987 15.084 90.4987 14.9207 89.8921 14.594C89.2947 14.2673 88.8281 13.8193 88.4921 13.25C88.1654 12.6807 88.0021 12.0273 88.0021 11.29C88.0021 10.5527 88.1607 9.89933 88.4781 9.33C88.8047 8.76067 89.2481 8.31733 89.8081 8C90.3774 7.67333 91.0167 7.51 91.7261 7.51C92.4447 7.51 93.0794 7.66867 93.6301 7.986C94.1807 8.30333 94.6101 8.75133 94.9181 9.33C95.2354 9.89933 95.3941 10.5667 95.3941 11.332C95.3941 11.388 95.3894 11.4533 95.3801 11.528C95.3801 11.6027 95.3754 11.6727 95.3661 11.738H89.0521V10.772H94.6661L94.1201 11.108C94.1294 10.632 94.0314 10.2073 93.8261 9.834C93.6207 9.46067 93.3361 9.17133 92.9721 8.966C92.6174 8.75133 92.2021 8.644 91.7261 8.644C91.2594 8.644 90.8441 8.75133 90.4801 8.966C90.1161 9.17133 89.8314 9.46533 89.6261 9.848C89.4207 10.2213 89.3181 10.6507 89.3181 11.136V11.36C89.3181 11.8547 89.4301 12.298 89.6541 12.69C89.8874 13.0727 90.2094 13.3713 90.6201 13.586C91.0307 13.8007 91.5021 13.908 92.0341 13.908C92.4727 13.908 92.8694 13.8333 93.2241 13.684C93.5881 13.5347 93.9054 13.3107 94.1761 13.012L94.9181 13.88C94.5821 14.272 94.1621 14.5707 93.6581 14.776C93.1634 14.9813 92.6081 15.084 91.9921 15.084ZM99.3883 15.084C98.7723 15.084 98.1843 15 97.6243 14.832C97.0737 14.664 96.6397 14.4587 96.3223 14.216L96.8823 13.152C97.1997 13.3667 97.5917 13.5487 98.0583 13.698C98.525 13.8473 99.001 13.922 99.4863 13.922C100.112 13.922 100.56 13.8333 100.83 13.656C101.11 13.4787 101.25 13.2313 101.25 12.914C101.25 12.6807 101.166 12.4987 100.998 12.368C100.83 12.2373 100.606 12.1393 100.326 12.074C100.056 12.0087 99.7523 11.9527 99.4163 11.906C99.0803 11.85 98.7443 11.7847 98.4083 11.71C98.0723 11.626 97.7643 11.514 97.4843 11.374C97.2043 11.2247 96.9803 11.024 96.8123 10.772C96.6443 10.5107 96.5603 10.1653 96.5603 9.736C96.5603 9.288 96.6863 8.896 96.9383 8.56C97.1903 8.224 97.545 7.96733 98.0023 7.79C98.469 7.60333 99.0197 7.51 99.6543 7.51C100.14 7.51 100.63 7.57067 101.124 7.692C101.628 7.804 102.039 7.96733 102.356 8.182L101.782 9.246C101.446 9.022 101.096 8.868 100.732 8.784C100.368 8.7 100.004 8.658 99.6403 8.658C99.0523 8.658 98.6137 8.756 98.3243 8.952C98.035 9.13867 97.8903 9.38133 97.8903 9.68C97.8903 9.932 97.9743 10.128 98.1423 10.268C98.3197 10.3987 98.5437 10.5013 98.8143 10.576C99.0943 10.6507 99.4023 10.716 99.7383 10.772C100.074 10.8187 100.41 10.884 100.746 10.968C101.082 11.0427 101.386 11.15 101.656 11.29C101.936 11.43 102.16 11.626 102.328 11.878C102.506 12.13 102.594 12.466 102.594 12.886C102.594 13.334 102.464 13.7213 102.202 14.048C101.941 14.3747 101.572 14.6313 101.096 14.818C100.62 14.9953 100.051 15.084 99.3883 15.084Z" fill="#2A90D9"/>
</svg>
